<?xml version="1.0" standalone="no"?>
<!DOCTYPE svg PUBLIC "-//W3C//DTD SVG 20010904//EN"
 "http://www.w3.org/TR/2001/REC-SVG-20010904/DTD/svg10.dtd">
<svg version="1.0" xmlns="http://www.w3.org/2000/svg"
 width="260.000000pt" height="260.000000pt" viewBox="0 0 260.000000 260.000000"
 preserveAspectRatio="xMidYMid meet">
<metadata>
Created by potrace 1.11, written by Peter Selinger 2001-2013
</metadata>
<g transform="translate(0.000000,260.000000) scale(0.100000,-0.100000)"
fill="#000000" stroke="none">
<path d="M1125 2569 c-183 -21 -427 -122 -591 -244 -215 -160 -398 -423 -466
-667 -75 -271 -61 -596 35 -833 57 -141 168 -313 271 -424 101 -107 283 -230
441 -298 76 -33 220 -71 315 -83 47 -6 106 -13 132 -17 43 -5 101 1 278 28
237 37 483 168 665 354 112 115 120 124 162 186 96 143 178 345 204 506 16
101 16 338 0 433 -13 74 -56 229 -72 260 -4 8 -26 52 -48 98 -62 127 -127 217
-236 328 -115 116 -193 174 -326 241 -126 64 -138 69 -243 98 -155 42 -346 54
-521 34z m330 -14 c157 -18 279 -56 425 -131 177 -90 316 -206 433 -359 62
-82 165 -269 186 -340 7 -22 15 -47 18 -55 33 -85 67 -338 58 -425 -26 -252
-55 -358 -147 -540 -82 -162 -236 -338 -390 -447 -81 -58 -260 -148 -349 -176
-100 -32 -287 -62 -385 -62 -104 0 -293 31 -395 64 -108 36 -255 108 -326 161
-210 156 -324 293 -438 524 -76 155 -115 349 -110 551 4 184 36 339 95 467 11
24 20 45 20 47 0 12 91 160 135 221 190 259 511 452 820 494 173 24 195 24
350 6z"/>
<path d="M1190 2477 c-52 -26 -30 -87 32 -87 55 0 73 75 21 94 -15 6 -15 5 1
-13 28 -31 14 -71 -24 -71 -16 0 -33 7 -38 16 -12 21 -4 54 14 54 7 0 16 5 19
10 8 13 5 12 -25 -3z"/>
<path d="M1318 2479 c-27 -15 -23 -65 5 -80 21 -12 21 -11 5 8 -38 42 -9 85
44 65 25 -9 28 -9 18 4 -14 16 -47 18 -72 3z"/>
<path d="M1431 2433 c0 -36 3 -43 9 -28 12 28 12 75 0 75 -5 0 -10 -21 -9 -47z"/>
<path d="M1050 2455 c-16 -20 -9 -27 35 -34 46 -8 45 -26 0 -26 -19 0 -35 -4
-35 -8 0 -5 19 -7 43 -5 34 2 42 7 42 23 0 15 -8 21 -34 25 -49 7 -56 34 -7
28 20 -2 36 0 36 4 0 14 -67 8 -80 -7z"/>
<path d="M1477 2428 c-3 -24 -5 -44 -3 -45 1 -1 22 -5 46 -8 47 -5 45 -1 -2 9
-34 8 -38 36 -5 37 l22 0 -23 10 c-35 14 -16 32 27 25 25 -4 31 -2 21 4 -8 5
-29 10 -46 10 -29 0 -32 -3 -37 -42z"/>
<path d="M1626 2427 c3 -8 0 -26 -5 -40 -6 -15 -7 -27 -3 -27 4 0 13 14 19 30
8 21 18 30 35 31 22 0 22 1 3 9 -31 13 -55 12 -49 -3z"/>
<path d="M886 2417 c-17 -12 -17 -17 -5 -50 7 -20 17 -37 22 -37 9 0 0 39 -14
56 -12 15 10 34 38 34 14 0 23 -6 23 -15 0 -8 -8 -15 -17 -15 -12 0 -7 -7 15
-20 41 -25 54 -25 24 0 -13 11 -18 21 -12 25 5 3 10 13 10 21 0 18 -59 19 -84
1z"/>
<path d="M1380 2405 c0 -8 2 -15 4 -15 2 0 6 7 10 15 3 8 1 15 -4 15 -6 0 -10
-7 -10 -15z"/>
<path d="M1716 2393 c4 -10 7 -31 6 -47 l-1 -28 24 26 c13 14 31 26 40 26 9 0
13 4 10 10 -4 6 -15 4 -30 -6 -24 -15 -25 -15 -35 10 -5 14 -12 26 -16 26 -3
0 -3 -8 2 -17z"/>
<path d="M783 2380 c-27 -11 -28 -19 -9 -65 14 -33 16 -34 45 -24 17 6 34 15
37 21 4 6 -2 5 -14 -1 -11 -6 -28 -11 -36 -11 -24 0 -19 25 7 38 21 10 21 10
-7 9 -41 -3 -43 18 -4 30 18 6 26 11 18 11 -8 1 -25 -3 -37 -8z"/>
<path d="M710 2343 c-21 -8 -65 -43 -53 -43 5 0 13 4 19 10 6 6 16 -2 28 -25
11 -19 23 -35 28 -35 5 0 0 16 -12 36 -22 34 -22 36 -4 49 20 15 19 17 -6 8z"/>
<path d="M1195 2344 c-67 -6 -195 -37 -279 -69 -192 -72 -371 -217 -492 -396
-64 -95 -126 -230 -138 -299 -4 -19 9 6 27 55 41 110 56 139 123 240 147 221
366 370 639 436 113 27 328 26 445 -1 180 -43 323 -117 475 -246 103 -87 223
-264 274 -406 53 -146 56 -165 56 -363 0 -205 -7 -244 -71 -402 -106 -266
-372 -511 -638 -588 -32 -9 -55 -19 -53 -22 8 -7 95 21 169 55 226 102 430
311 528 540 63 148 84 254 84 422 -1 155 -15 229 -69 374 -121 321 -406 568
-745 645 -88 20 -246 32 -335 25z"/>
<path d="M1859 2321 c-28 -23 -20 -63 16 -79 30 -14 71 -7 79 13 7 19 -4 53
-20 59 -11 4 -12 2 -1 -14 9 -15 9 -25 1 -38 -16 -25 -40 -26 -64 -2 -25 25
-13 57 22 62 19 3 20 4 6 10 -10 4 -26 0 -39 -11z"/>
<path d="M617 2284 c-3 -4 4 -19 16 -35 l21 -29 -23 -23 -22 -22 -30 33 c-16
18 -29 26 -29 19 0 -17 37 -57 53 -57 23 0 57 31 57 51 0 23 -34 72 -43 63z"/>
<path d="M1972 2240 c-12 -16 -22 -35 -22 -42 1 -8 6 -6 14 5 12 15 18 17 38
7 22 -11 22 -11 3 5 -19 15 -19 17 -3 29 10 7 15 16 11 19 -11 12 -19 8 -41
-23z"/>
<path d="M2030 2246 c0 -2 8 -10 18 -17 15 -13 16 -12 3 4 -13 16 -21 21 -21
13z"/>
<path d="M475 2176 l-29 -24 28 -36 c15 -20 32 -34 37 -30 6 4 6 11 -2 20 -10
12 -7 19 11 39 23 24 22 55 -2 55 -7 0 -26 -11 -43 -24z m49 5 c3 -5 -3 -20
-13 -32 -16 -19 -22 -21 -32 -12 -10 10 -9 17 6 33 20 22 31 25 39 11z"/>
<path d="M2095 2130 c-16 -16 -26 -32 -24 -34 5 -5 69 51 69 60 0 12 -19 1
-45 -26z"/>
<path d="M2137 2102 c-34 -36 -35 -53 -2 -22 l25 23 0 -57 0 -57 35 27 c38 29
49 55 13 30 -34 -24 -40 -20 -33 28 9 55 -4 64 -38 28z"/>
<path d="M416 2111 c-4 -5 -2 -21 4 -36 16 -42 13 -45 -35 -38 -29 4 -45 2
-45 -5 0 -13 62 -63 69 -56 3 3 -8 16 -24 28 l-30 24 48 -5 48 -6 -11 27 c-16
44 -12 51 15 26 32 -30 32 -14 0 23 -26 29 -31 32 -39 18z"/>
<path d="M2222 1993 l-33 -28 28 -34 c21 -24 35 -32 52 -30 34 5 48 31 33 61
-11 21 -12 21 -7 2 5 -20 -16 -54 -34 -54 -11 0 -51 40 -51 51 0 5 13 18 30
27 16 9 30 20 30 25 0 14 -16 7 -48 -20z"/>
<path d="M303 1973 c-10 -10 -14 -15 -9 -10 16 11 43 8 55 -7 16 -19 4 -64
-21 -77 -26 -14 -61 15 -52 44 4 13 2 17 -5 13 -27 -17 -1 -76 34 -76 24 0 65
46 65 74 0 24 -23 56 -40 56 -4 0 -16 -8 -27 -17z"/>
<path d="M2307 1881 c-37 -24 -43 -31 -26 -31 8 0 28 11 44 25 35 28 23 32
-18 6z"/>
<path d="M636 1880 c-114 -35 -132 -217 -27 -287 l34 -23 567 0 c379 0 577 4
598 11 76 26 83 131 11 170 -13 6 -105 10 -253 9 -244 -1 -266 3 -250 44 5 14
35 16 264 16 142 0 265 3 274 6 25 10 20 53 -7 59 -12 3 -140 5 -284 3 -245
-3 -262 -4 -283 -23 -33 -30 -42 -62 -29 -102 19 -58 40 -63 296 -63 125 0
234 -4 241 -9 8 -5 12 -17 10 -27 -3 -18 -25 -19 -553 -24 -654 -6 -635 -9
-635 92 0 29 6 52 16 62 8 9 16 17 17 18 1 1 114 5 251 8 218 4 250 7 259 22
8 12 7 21 -2 32 -12 14 -46 16 -250 15 -130 0 -249 -5 -265 -9z"/>
<path d="M1963 1883 c-10 -3 -13 -44 -13 -154 l0 -149 24 -6 c14 -3 30 -3 35
1 7 4 11 61 11 155 0 126 -2 149 -16 154 -18 7 -23 7 -41 -1z"/>
<path d="M223 1848 c-22 -29 -24 -41 -3 -20 12 13 20 25 17 28 -2 2 -9 -1 -14
-8z"/>
<path d="M286 1815 c9 -21 -23 -65 -46 -65 -10 0 -23 8 -29 17 -5 10 -12 15
-16 11 -12 -11 33 -47 53 -42 32 9 71 94 42 94 -5 0 -7 -7 -4 -15z"/>
<path d="M2290 1819 c0 -9 26 -13 68 -9 24 2 27 -7 12 -30 -9 -13 -11 -13 -21
0 -9 13 -10 12 -5 -3 3 -10 1 -27 -4 -38 -6 -10 -7 -19 -3 -19 13 0 64 83 55
91 -11 12 -102 19 -102 8z"/>
<path d="M266 1516 c-27 -108 -24 -383 4 -448 9 -20 10 -20 5 7 -13 71 -17
314 -6 384 11 72 10 107 -3 57z"/>
<path d="M833 1393 c-18 -7 -16 -50 3 -57 9 -3 65 -6 125 -6 l109 0 0 -68 c0
-61 -3 -71 -26 -93 -25 -23 -31 -24 -199 -27 -198 -4 -235 5 -254 60 -9 24
-15 29 -38 26 -53 -6 -34 -90 30 -128 29 -18 51 -20 248 -20 l217 0 39 38 c43
42 53 72 53 159 l0 54 43 -3 42 -3 5 -120 c5 -119 5 -120 29 -120 33 0 44 39
36 128 -7 75 -3 79 48 44 102 -69 256 -76 374 -16 37 19 71 36 76 37 4 2 7
-35 7 -81 0 -105 4 -117 41 -117 l29 0 0 150 c0 138 -1 150 -20 160 -16 9 -29
3 -77 -34 -97 -73 -143 -89 -242 -84 -93 5 -121 17 -215 90 l-49 38 -211 -1
c-116 0 -217 -3 -223 -6z"/>
<path d="M1962 1388 c-9 -9 -12 -85 -12 -304 0 -315 -3 -336 -55 -388 -14 -14
-44 -31 -66 -38 -37 -11 -45 -10 -78 10 -113 67 -126 70 -291 73 l-155 4 -7
-40 c-4 -22 -7 -66 -7 -98 -1 -53 1 -58 25 -67 39 -15 86 -12 122 8 29 15 47
40 82 112 4 9 23 15 48 16 32 1 53 -7 97 -37 65 -44 105 -54 171 -44 57 8 122
64 156 133 23 46 23 54 23 357 0 303 0 310 -20 313 -11 1 -26 -3 -33 -10z"/>
<path d="M2497 1272 c-10 -10 -40 -35 -67 -53 -69 -47 -67 -68 10 -144 45 -44
60 -55 60 -40 0 10 -7 26 -16 36 -24 26 -11 143 18 163 12 9 18 23 16 36 -3
22 -3 22 -21 2z m-37 -117 c0 -25 -3 -45 -7 -45 -11 1 -53 37 -53 45 0 8 42
44 53 45 4 0 7 -20 7 -45z"/>
<path d="M90 1261 c-13 -26 -13 -84 2 -116 12 -27 30 -30 101 -19 28 5 37 11
37 27 0 20 -6 21 -92 1 -24 -5 -29 -2 -39 22 -9 23 -8 35 5 57 9 16 16 33 16
38 0 16 -19 10 -30 -10z"/>
<path d="M100 1055 c0 -8 12 -21 27 -29 36 -18 59 -106 38 -146 -8 -15 -10
-31 -6 -38 8 -13 101 120 101 144 0 8 -10 18 -22 23 -13 5 -49 21 -80 35 -46
20 -58 23 -58 11z m140 -75 c0 -9 -49 -54 -54 -49 -2 2 -7 21 -11 41 l-7 37
36 -11 c20 -6 36 -14 36 -18z"/>
<path d="M285 1008 c28 -136 154 -346 278 -465 67 -64 242 -193 262 -193 3 0
24 -9 48 -19 151 -70 356 -100 534 -81 57 6 114 15 126 20 15 6 4 7 -33 2 -30
-4 -131 -7 -225 -7 -158 0 -177 2 -265 29 -203 61 -388 183 -516 341 -39 48
-134 190 -134 200 0 3 -9 24 -19 48 -11 23 -27 68 -36 100 -18 61 -31 78 -20
25z"/>
<path d="M2351 996 c-8 -9 6 -18 56 -34 52 -18 68 -20 74 -10 10 15 0 21 -68
41 -41 12 -54 13 -62 3z"/>
<path d="M1122 989 c-137 -17 -220 -64 -264 -148 -32 -61 -35 -108 -12 -187
16 -58 50 -94 111 -119 45 -19 80 -19 133 0 23 8 75 15 114 15 l71 0 -3 217
c-1 119 -3 218 -5 219 -9 8 -93 9 -145 3z"/>
<path d="M1300 876 l0 -106 111 0 112 0 -6 41 c-10 75 -89 145 -184 164 l-33
7 0 -106z"/>
<path d="M2326 913 c-13 -14 -5 -40 30 -91 20 -30 33 -56 30 -60 -4 -3 -34 -8
-69 -10 -55 -4 -76 -13 -77 -34 0 -5 89 -66 113 -76 4 -2 7 5 7 16 0 12 -14
25 -40 38 -22 10 -40 22 -40 27 0 4 27 7 60 7 88 0 95 29 26 107 -27 32 -15
38 38 20 44 -15 46 -15 46 2 0 11 -9 21 -22 24 -13 2 -39 12 -59 20 -20 9 -39
13 -43 10z"/>
<path d="M228 817 c-27 -12 -48 -28 -48 -34 0 -18 15 -16 61 8 23 11 43 18 46
16 2 -3 -12 -28 -32 -57 -47 -67 -42 -80 34 -80 61 0 88 -13 51 -25 -11 -3
-20 -10 -20 -15 0 -5 -9 -12 -20 -15 -19 -6 -29 -35 -13 -35 4 0 32 16 61 37
74 50 68 67 -26 71 -39 2 -72 5 -72 8 0 3 16 29 35 59 53 83 33 105 -57 62z"/>
<path d="M2163 605 c-13 -9 -12 -20 6 -73 12 -34 21 -68 21 -77 0 -8 5 -15 10
-15 11 0 13 12 10 47 -2 35 58 103 92 103 15 0 28 4 28 9 0 13 -150 18 -167 6z
m80 -22 c7 -7 -31 -53 -44 -53 -4 0 -12 14 -18 30 -10 29 -9 30 23 30 18 0 36
-3 39 -7z"/>
<path d="M385 568 c-54 -43 -65 -58 -42 -58 16 0 107 69 107 81 0 21 -19 14
-65 -23z"/>
<path d="M470 490 c-14 -4 -40 -8 -58 -9 -22 -1 -32 -5 -29 -13 2 -8 16 -12
33 -10 37 4 98 -55 99 -95 0 -14 5 -28 11 -30 7 -2 13 20 17 59 4 35 8 72 9
83 2 16 -3 20 -27 22 -16 1 -41 -2 -55 -7z m56 -45 l-11 -34 -22 21 c-28 26
-29 35 -5 41 45 12 50 9 38 -28z"/>
<path d="M1995 440 c-9 -14 57 -105 77 -105 18 0 112 84 104 92 -3 3 -22 -11
-43 -31 -21 -20 -42 -36 -48 -36 -5 0 -27 20 -47 45 -21 27 -39 41 -43 35z"/>
<path d="M1880 368 c-39 -25 -59 -47 -60 -65 0 -18 69 -16 115 3 40 16 60 9
50 -18 -8 -20 -76 -51 -102 -46 -11 1 -21 -1 -22 -7 -3 -19 44 -15 89 8 28 15
49 34 54 50 16 44 -2 50 -74 28 -82 -26 -107 -15 -57 23 20 15 45 26 56 24 11
-2 21 2 23 7 6 19 -37 15 -72 -7z"/>
<path d="M711 356 c-37 -45 -69 -102 -61 -110 12 -12 35 8 50 44 19 46 30 36
30 -30 0 -72 13 -77 78 -29 24 17 45 29 48 26 3 -3 -2 -22 -10 -42 -19 -45
-20 -55 -3 -55 6 0 22 27 33 61 28 78 14 86 -60 35 -29 -20 -56 -36 -59 -36
-4 0 -7 31 -7 69 0 50 -4 70 -14 74 -8 3 -19 0 -25 -7z"/>
<path d="M1744 284 c5 -11 15 -38 23 -61 16 -46 30 -61 43 -47 10 11 -40 116
-59 122 -10 4 -12 0 -7 -14z"/>
<path d="M939 215 c-6 -25 -15 -48 -20 -51 -16 -10 -10 -36 8 -32 24 4 56 128
33 128 -5 0 -15 -20 -21 -45z"/>
<path d="M1016 186 c-22 -73 -21 -74 22 -85 67 -16 102 -21 102 -12 0 4 -24
12 -52 17 -58 10 -58 10 -44 92 11 62 -9 53 -28 -12z"/>
<path d="M1524 232 c-13 -9 -64 -119 -64 -138 0 -23 19 -16 26 10 4 16 17 27
43 35 46 13 81 14 81 2 0 -11 39 -26 46 -18 5 5 -87 95 -110 109 -7 4 -17 4
-22 0z m34 -34 c19 -19 14 -37 -13 -44 -33 -8 -38 -3 -29 30 7 28 23 33 42 14z"/>
<path d="M1195 155 c-4 -36 -6 -68 -4 -70 7 -7 139 -8 146 -2 3 4 -21 7 -55 7
l-62 0 0 65 c0 36 -4 65 -9 65 -5 0 -13 -29 -16 -65z"/>
<path d="M1374 198 c3 -13 6 -44 6 -70 0 -38 4 -48 16 -48 13 0 15 7 10 31 -3
17 -6 49 -6 70 0 29 -4 39 -16 39 -12 0 -15 -6 -10 -22z"/>
</g>
</svg>
