<?xml version="1.0" standalone="no"?>
<!DOCTYPE svg PUBLIC "-//W3C//DTD SVG 20010904//EN"
 "http://www.w3.org/TR/2001/REC-SVG-20010904/DTD/svg10.dtd">
<svg version="1.0" xmlns="http://www.w3.org/2000/svg"
 width="260.000000pt" height="260.000000pt" viewBox="0 0 260.000000 260.000000"
 preserveAspectRatio="xMidYMid meet">
<metadata>
Created by potrace 1.11, written by Peter Selinger 2001-2013
</metadata>
<g transform="translate(0.000000,260.000000) scale(0.100000,-0.100000)"
fill="#000000" stroke="none">
<path d="M1137 2569 c-97 -11 -260 -56 -343 -94 -299 -137 -503 -333 -643
-618 -103 -208 -138 -384 -128 -632 23 -524 373 -986 872 -1150 93 -31 213
-56 258 -54 27 2 28 2 7 6 -186 30 -279 58 -410 122 -262 129 -453 318 -585
578 -275 543 -120 1211 366 1578 168 126 372 215 569 247 99 16 316 16 410 0
317 -55 621 -240 811 -496 69 -93 159 -263 192 -367 21 -65 49 -201 60 -294 3
-24 4 -22 5 10 3 85 -38 264 -90 385 -65 153 -197 343 -311 446 -57 52 -206
164 -218 164 -4 0 -38 17 -76 38 -203 114 -479 162 -746 131z"/>
<path d="M1316 2474 c-17 -16 -22 -64 -7 -64 4 0 6 11 4 24 -4 17 2 28 18 40
13 9 18 16 12 16 -6 0 -19 -7 -27 -16z"/>
<path d="M1360 2486 c0 -3 9 -10 20 -16 11 -6 20 -8 20 -6 0 3 -9 10 -20 16
-11 6 -20 8 -20 6z"/>
<path d="M1172 2468 c-15 -15 -16 -45 -1 -54 7 -4 9 0 5 14 -4 12 -1 26 9 36
9 9 13 16 8 16 -5 0 -14 -5 -21 -12z"/>
<path d="M1249 2472 c9 -6 12 -21 9 -42 -4 -29 -3 -31 8 -16 15 21 5 58 -17
64 -12 3 -12 2 0 -6z"/>
<path d="M1433 2433 c-1 -38 0 -43 7 -23 11 33 12 70 2 70 -5 0 -9 -21 -9 -47z"/>
<path d="M1051 2456 c-15 -17 3 -33 43 -38 33 -3 46 -24 21 -31 -12 -4 -11 -5
2 -3 11 1 18 9 18 21 0 16 -8 21 -37 23 -37 3 -52 24 -25 35 7 4 8 6 1 6 -6 1
-17 -5 -23 -13z"/>
<path d="M1100 2466 c0 -2 7 -6 15 -10 8 -3 15 -1 15 4 0 6 -7 10 -15 10 -8 0
-15 -2 -15 -4z"/>
<path d="M1490 2461 c0 -4 11 -6 25 -3 14 2 25 6 25 8 0 2 -11 4 -25 4 -14 0
-25 -4 -25 -9z"/>
<path d="M1480 2419 c0 -11 0 -22 -1 -26 0 -4 4 -9 9 -11 6 -2 8 6 5 17 -4 15
1 20 19 23 22 3 22 4 -4 9 -23 5 -28 3 -28 -12z"/>
<path d="M1623 2397 l-1 -42 13 35 c17 45 18 50 3 50 -8 0 -14 -16 -15 -43z"/>
<path d="M923 2423 c29 -5 38 -33 10 -33 -12 0 -8 -5 11 -15 16 -9 31 -13 34
-10 3 2 -3 7 -12 11 -12 5 -14 10 -5 20 16 20 2 34 -34 33 -30 -2 -31 -2 -4
-6z"/>
<path d="M876 2412 c-7 -11 15 -82 25 -82 9 0 0 41 -13 57 -5 7 -7 17 -3 23 3
5 4 10 1 10 -3 0 -7 -4 -10 -8z"/>
<path d="M1716 2395 c4 -11 7 -32 6 -47 -1 -32 4 -35 16 -10 7 12 3 26 -10 47
-11 17 -17 21 -12 10z"/>
<path d="M1057 2389 c7 -7 15 -10 18 -7 3 3 -2 9 -12 12 -14 6 -15 5 -6 -5z"/>
<path d="M790 2380 c-8 -5 -10 -10 -5 -10 6 0 17 5 25 10 8 5 11 10 5 10 -5 0
-17 -5 -25 -10z"/>
<path d="M1518 2373 c6 -2 18 -2 25 0 6 3 1 5 -13 5 -14 0 -19 -2 -12 -5z"/>
<path d="M1765 2370 c-3 -6 1 -7 9 -4 18 7 21 14 7 14 -6 0 -13 -4 -16 -10z"/>
<path d="M764 2345 c5 -11 11 -28 13 -37 6 -20 39 -24 63 -8 11 7 6 8 -17 4
-40 -8 -46 16 -10 35 l22 11 -23 -6 c-13 -3 -30 0 -39 8 -15 11 -16 11 -9 -7z"/>
<path d="M1195 2341 c-40 -4 -8 -7 98 -7 86 -1 156 0 155 1 -8 7 -201 11 -253
6z"/>
<path d="M684 2324 c-10 -8 -14 -13 -8 -10 6 3 20 -10 30 -29 10 -19 22 -35
27 -35 5 0 -1 16 -13 35 -12 19 -19 39 -15 45 9 14 2 12 -21 -6z"/>
<path d="M1108 2323 c7 -3 16 -2 19 1 4 3 -2 6 -13 5 -11 0 -14 -3 -6 -6z"/>
<path d="M1468 2323 c7 -3 16 -2 19 1 4 3 -2 6 -13 5 -11 0 -14 -3 -6 -6z"/>
<path d="M1850 2309 c-16 -29 -9 -29 17 -2 16 16 18 23 8 23 -8 0 -19 -9 -25
-21z"/>
<path d="M1058 2313 c7 -3 16 -2 19 1 4 3 -2 6 -13 5 -11 0 -14 -3 -6 -6z"/>
<path d="M1518 2313 c7 -3 16 -2 19 1 4 3 -2 6 -13 5 -11 0 -14 -3 -6 -6z"/>
<path d="M981 2299 c-18 -6 -31 -12 -29 -14 2 -3 24 1 49 9 49 16 33 20 -20 5z"/>
<path d="M1605 2289 c32 -10 61 -16 63 -14 5 4 -97 35 -112 34 -6 0 16 -9 49
-20z"/>
<path d="M1937 2286 c4 -17 -2 -28 -18 -40 -13 -9 -18 -16 -12 -16 24 0 53 35
47 58 -8 30 -22 28 -17 -2z"/>
<path d="M621 2275 c0 -5 6 -19 14 -29 8 -11 12 -29 9 -39 -4 -13 -2 -17 5
-13 17 11 13 41 -9 67 -10 13 -19 20 -19 14z"/>
<path d="M910 2273 c-8 -3 -26 -10 -39 -15 -13 -5 -22 -11 -19 -13 3 -3 25 3
49 14 40 18 46 28 9 14z"/>
<path d="M1681 2265 c9 -9 79 -35 79 -30 0 3 -16 13 -35 21 -34 14 -52 18 -44
9z"/>
<path d="M1850 2261 c0 -9 30 -24 36 -18 2 1 -6 8 -16 15 -11 7 -20 8 -20 3z"/>
<path d="M1979 2248 c-7 -13 -16 -26 -22 -29 -5 -4 -7 -13 -5 -20 3 -8 12 -1
23 19 11 18 25 32 33 32 7 0 10 5 7 10 -10 16 -23 12 -36 -12z"/>
<path d="M550 2223 c0 -14 47 -56 57 -52 5 2 -6 17 -24 32 -18 16 -33 25 -33
20z"/>
<path d="M755 2193 c-174 -106 -311 -255 -404 -439 -48 -94 -36 -90 15 5 97
181 204 302 356 402 51 33 95 63 97 65 12 12 -11 0 -64 -33z"/>
<path d="M1770 2226 c0 -3 17 -15 38 -26 20 -11 48 -28 62 -37 20 -14 23 -15
13 -2 -13 17 -113 74 -113 65z"/>
<path d="M520 2185 c10 -13 10 -19 -5 -35 -20 -23 -24 -23 -45 -10 -13 8 -12
11 5 24 11 9 15 16 9 16 -6 0 -17 -7 -24 -15 -13 -16 -14 -15 43 -80 6 -6 6 0
2 13 -5 17 -1 30 15 47 22 24 22 55 -1 55 -8 0 -8 -4 1 -15z"/>
<path d="M2100 2135 c-13 -14 -21 -27 -18 -30 2 -3 15 6 28 20 13 14 21 27 18
30 -2 3 -15 -6 -28 -20z"/>
<path d="M1925 2125 c17 -14 44 -35 60 -46 l30 -21 -30 27 c-16 14 -43 35 -60
46 l-30 21 30 -27z"/>
<path d="M2137 2102 c-34 -35 -36 -54 -2 -22 l25 23 0 -51 c0 -29 2 -52 5 -52
3 0 19 10 35 22 34 25 41 47 8 24 -34 -24 -40 -20 -34 22 9 55 -4 68 -37 34z"/>
<path d="M415 2110 c-3 -5 -1 -18 4 -27 10 -17 10 -17 11 1 0 18 2 18 28 -5
26 -23 26 -23 -2 9 -33 36 -33 36 -41 22z"/>
<path d="M2079 1982 c33 -40 78 -105 102 -143 23 -38 44 -67 47 -65 8 8 -103
167 -158 226 -49 52 -48 52 9 -18z"/>
<path d="M340 2031 c0 -12 63 -62 69 -55 3 3 -8 16 -24 30 l-30 24 50 -4 c38
-4 43 -3 20 3 -42 12 -85 13 -85 2z"/>
<path d="M2222 1993 c-30 -26 -31 -29 -16 -48 16 -20 16 -20 10 1 -4 14 1 27
18 41 13 12 27 19 30 16 3 -4 6 -1 6 5 0 19 -13 14 -48 -15z"/>
<path d="M340 1968 c25 -24 38 -29 25 -9 -3 6 -16 16 -28 22 -20 11 -20 9 3
-13z"/>
<path d="M289 1963 c-13 -16 -12 -17 4 -4 9 7 17 15 17 17 0 8 -8 3 -21 -13z"/>
<path d="M2295 1938 c-6 -12 -21 -25 -35 -29 l-25 -7 27 -1 c27 -1 53 28 46
50 -2 5 -8 -1 -13 -13z"/>
<path d="M261 1914 c-1 -21 27 -54 45 -54 6 0 19 7 30 16 18 15 18 15 -3 5
-29 -14 -50 -5 -62 27 -8 23 -10 24 -10 6z"/>
<path d="M2307 1879 c-22 -11 -37 -23 -34 -25 6 -7 63 22 72 36 8 13 7 13 -38
-11z"/>
<path d="M640 1879 c-100 -28 -134 -187 -56 -265 25 -25 44 -33 87 -39 74 -9
1130 -2 1150 8 22 11 49 61 49 90 0 14 -11 39 -24 54 l-24 28 -245 3 c-199 2
-248 6 -257 17 -7 8 -10 21 -6 30 4 12 46 15 272 17 240 3 268 5 278 20 24 39
0 43 -289 43 l-273 0 -26 -24 c-36 -34 -36 -98 0 -132 25 -24 28 -24 252 -27
253 -2 272 -5 272 -30 0 -42 -1 -42 -573 -42 -502 0 -551 1 -578 17 -55 33
-57 137 -3 161 16 8 103 12 258 12 186 0 236 3 245 14 15 18 5 43 -22 50 -36
9 -449 5 -487 -5z"/>
<path d="M1968 1879 c-16 -9 -18 -27 -18 -149 0 -121 2 -140 17 -149 11 -6 24
-6 35 0 16 9 18 26 18 153 0 122 -2 145 -16 150 -19 7 -15 8 -36 -5z"/>
<path d="M215 1839 c-11 -16 -1 -19 13 -3 7 8 8 14 3 14 -5 0 -13 -5 -16 -11z"/>
<path d="M287 1809 c4 -13 8 -18 11 -10 2 7 -1 18 -6 23 -8 8 -9 4 -5 -13z"/>
<path d="M2293 1814 c3 -4 24 -6 47 -6 46 1 47 -2 20 -43 -11 -16 -20 -34 -20
-39 0 -5 11 8 25 28 38 56 34 66 -27 66 -28 0 -49 -3 -45 -6z"/>
<path d="M196 1767 c11 -30 40 -39 61 -19 10 9 14 14 9 10 -16 -13 -38 -9 -58
9 -18 16 -18 16 -12 0z"/>
<path d="M2245 1723 c16 -38 25 -52 25 -39 0 12 -29 76 -35 76 -3 0 2 -17 10
-37z"/>
<path d="M296 1619 c-21 -68 -13 -76 9 -9 9 28 15 54 12 57 -3 3 -13 -19 -21
-48z"/>
<path d="M2286 1615 c11 -48 25 -76 18 -35 -4 19 -10 42 -15 50 -6 10 -7 5 -3
-15z"/>
<path d="M263 1504 c-13 -62 -9 -405 5 -434 l13 -25 -6 25 c-14 55 -17 328 -6
395 13 72 8 103 -6 39z"/>
<path d="M2311 1524 c0 -11 3 -14 6 -6 3 7 2 16 -1 19 -3 4 -6 -2 -5 -13z"/>
<path d="M2322 1480 c0 -14 2 -19 5 -12 2 6 2 18 0 25 -3 6 -5 1 -5 -13z"/>
<path d="M2334 1320 c0 -74 -3 -157 -6 -185 -5 -31 -4 -40 1 -24 14 42 21 209
13 279 -7 54 -8 43 -8 -70z"/>
<path d="M829 1384 c-9 -11 -10 -20 -2 -32 8 -14 31 -18 127 -20 l116 -3 0
-67 c-1 -53 -5 -72 -21 -92 l-21 -25 -198 0 c-179 0 -200 2 -218 19 -12 10
-22 28 -24 40 -4 29 -54 35 -62 8 -10 -30 23 -90 61 -112 31 -18 53 -20 241
-20 227 0 234 2 283 64 18 22 23 45 27 108 l5 79 41 -3 41 -3 5 -120 c4 -107
7 -120 24 -123 29 -6 36 16 36 111 0 48 4 87 9 87 5 0 40 -17 78 -37 66 -36
71 -37 168 -37 86 0 108 3 156 26 31 14 60 31 63 37 4 6 14 11 22 11 11 0 14
-18 14 -84 0 -104 4 -116 41 -116 l29 0 0 150 c0 136 -2 150 -19 159 -15 8
-28 4 -62 -23 -108 -82 -127 -90 -226 -94 -86 -4 -96 -2 -145 23 -28 15 -76
45 -104 66 l-53 39 -209 0 c-179 0 -211 -2 -223 -16z"/>
<path d="M1962 1388 c-9 -9 -12 -91 -12 -307 0 -266 -2 -300 -19 -336 -24 -52
-46 -71 -102 -86 -37 -10 -53 -10 -78 0 -17 8 -31 17 -31 22 0 5 -25 20 -56
34 -52 23 -68 25 -210 25 l-153 0 -3 -92 c-2 -51 0 -97 4 -102 5 -6 32 -10 62
-10 69 -1 102 22 135 92 24 50 27 52 64 52 35 0 102 -29 117 -52 10 -13 79
-38 107 -38 84 0 160 51 203 137 25 47 25 52 28 346 4 301 1 327 -32 327 -7 0
-17 -5 -24 -12z"/>
<path d="M2583 1295 c0 -38 2 -53 4 -32 2 20 2 52 0 70 -2 17 -4 1 -4 -38z"/>
<path d="M91 1261 c-17 -31 -13 -96 7 -121 17 -21 23 -22 68 -15 27 5 53 8 57
6 5 -1 7 6 5 16 -2 10 -8 17 -14 16 -102 -17 -103 -17 -115 13 -8 23 -7 36 5
61 17 35 4 57 -13 24z"/>
<path d="M2448 1231 c-46 -31 -67 -53 -68 -67 0 -12 26 -48 60 -85 48 -51 60
-60 60 -43 0 12 -7 28 -16 35 -25 21 -14 137 16 161 12 10 20 24 18 31 -2 10
-23 0 -70 -32z m12 -76 c0 -25 -3 -45 -7 -45 -13 1 -53 37 -53 48 0 10 39 41
53 41 4 1 7 -19 7 -44z"/>
<path d="M2570 1186 c0 -82 -52 -297 -92 -381 -44 -91 -84 -164 -127 -230 -50
-78 -210 -248 -274 -292 -23 -15 -44 -30 -47 -33 -28 -29 -238 -136 -312 -160
-47 -14 -50 -24 -5 -15 54 12 216 95 317 162 95 64 242 205 307 295 91 125
170 292 209 439 23 91 43 249 30 249 -3 0 -6 -15 -6 -34z"/>
<path d="M100 1051 c0 -6 12 -16 27 -23 22 -11 30 -24 40 -71 11 -49 11 -61
-1 -80 -9 -12 -12 -28 -7 -35 5 -8 23 13 55 63 45 72 53 105 24 105 -7 0 -35
12 -63 25 -53 26 -75 31 -75 16z m123 -58 c21 -7 21 -12 -2 -40 -19 -23 -41
-30 -41 -14 0 5 -3 23 -7 41 -6 30 -4 33 13 26 10 -5 27 -11 37 -13z"/>
<path d="M2291 994 c-15 -61 -8 -68 9 -9 7 25 10 48 8 51 -3 2 -11 -16 -17
-42z"/>
<path d="M296 980 c4 -19 10 -42 15 -50 11 -18 1 34 -13 65 -5 13 -6 9 -2 -15z"/>
<path d="M2350 990 c0 -5 12 -13 28 -16 15 -4 32 -10 37 -14 6 -4 22 -10 38
-14 50 -12 31 20 -22 38 -57 18 -81 20 -81 6z"/>
<path d="M1071 979 c-163 -27 -258 -147 -231 -290 15 -78 44 -117 108 -147
l55 -25 71 17 c39 9 99 16 134 16 l62 0 0 220 0 220 -72 -1 c-40 -1 -97 -5
-127 -10z"/>
<path d="M1300 876 l0 -106 110 0 110 0 0 28 c-1 65 -83 153 -158 167 -18 3
-40 9 -48 12 -12 4 -14 -13 -14 -101z"/>
<path d="M2326 913 c-13 -13 -5 -38 30 -89 20 -29 33 -57 30 -63 -4 -6 -36
-11 -71 -11 -49 0 -64 -4 -69 -16 -4 -9 -5 -18 -4 -19 45 -34 114 -73 116 -65
6 16 -15 36 -48 50 -46 19 -36 29 32 32 76 4 84 20 41 82 -48 67 -48 67 -2 51
23 -8 48 -15 55 -15 24 0 15 20 -13 30 -16 6 -39 16 -53 22 -14 7 -28 13 -31
15 -3 1 -9 0 -13 -4z"/>
<path d="M2237 852 c-39 -85 -119 -201 -192 -279 -65 -70 -225 -187 -299 -218
-21 -9 -36 -18 -33 -21 7 -8 82 32 167 89 104 70 201 166 276 274 60 86 121
199 112 208 -2 3 -16 -21 -31 -53z"/>
<path d="M335 868 c4 -13 11 -27 16 -33 5 -5 4 5 -2 23 -12 36 -24 44 -14 10z"/>
<path d="M228 817 c-26 -12 -48 -28 -48 -34 0 -18 13 -16 60 8 23 12 43 19 46
16 3 -3 -10 -29 -29 -57 -47 -69 -41 -80 39 -80 35 0 64 -3 64 -7 0 -7 -23
-24 -79 -59 -1 -2 0 -7 3 -13 7 -10 46 10 96 48 37 30 14 50 -53 45 -84 -6
-90 -1 -60 51 13 25 29 47 34 50 5 4 9 17 9 31 0 30 -19 31 -82 1z"/>
<path d="M380 780 c29 -54 105 -158 154 -208 60 -64 186 -164 186 -148 0 2
-28 24 -62 49 -35 25 -83 67 -108 93 -51 54 -150 189 -150 203 0 5 -7 15 -17
22 -15 13 -15 12 -3 -11z"/>
<path d="M383 566 c-68 -53 -53 -72 16 -21 28 20 51 41 51 45 0 21 -19 14 -67
-24z"/>
<path d="M2156 602 c-6 -11 37 -152 47 -152 4 0 7 13 7 30 0 16 12 48 28 69
22 33 33 40 60 41 17 0 32 5 32 10 0 12 -166 14 -174 2z m93 -18 c6 -5 -40
-54 -50 -54 -5 0 -29 53 -29 66 0 4 74 -8 79 -12z"/>
<path d="M442 487 c-36 -6 -61 -15 -59 -21 2 -6 17 -10 33 -8 38 4 106 -62
102 -98 -2 -12 3 -25 10 -27 8 -3 12 8 12 39 0 24 4 60 9 80 7 29 5 38 -6 42
-16 7 -13 7 -101 -7z m86 -45 l-12 -32 -28 27 -28 27 32 11 c42 15 51 7 36
-33z"/>
<path d="M1990 435 c0 -12 75 -105 85 -105 6 0 33 23 60 52 l50 52 -49 -43
-50 -42 -39 46 c-34 40 -57 56 -57 40z"/>
<path d="M745 400 c6 -10 155 -83 160 -79 1 2 -35 23 -81 46 -46 23 -82 38
-79 33z"/>
<path d="M1890 371 c-43 -23 -74 -56 -65 -70 9 -16 59 -13 105 5 43 17 66 10
55 -17 -9 -23 -71 -52 -100 -47 -31 6 -43 -8 -13 -15 43 -12 138 47 138 85 0
23 -40 24 -101 3 -24 -9 -49 -13 -56 -11 -33 13 33 66 84 66 22 0 25 2 13 10
-19 12 -19 12 -60 -9z"/>
<path d="M678 306 c-24 -37 -32 -56 -23 -60 7 -2 25 16 41 42 l29 46 3 -67 c3
-80 14 -84 80 -36 24 17 46 29 49 26 3 -4 -2 -24 -11 -47 -19 -47 -19 -50 -7
-50 11 0 39 59 47 99 8 40 -4 40 -69 -4 -28 -19 -55 -35 -59 -35 -4 0 -8 30
-10 67 -4 89 -22 94 -70 19z"/>
<path d="M1635 309 c-27 -10 -37 -17 -21 -14 31 7 97 33 81 33 -5 0 -32 -8
-60 -19z"/>
<path d="M945 305 c17 -8 37 -14 45 -14 8 0 -1 7 -20 14 -46 18 -64 17 -25 0z"/>
<path d="M1747 293 c-6 -11 44 -123 54 -123 15 0 10 22 -16 78 -24 52 -30 59
-38 45z"/>
<path d="M1069 270 c13 -6 58 -12 100 -15 l76 -4 -67 9 c-37 4 -82 11 -100 14
-29 5 -30 5 -9 -4z"/>
<path d="M1505 274 c-5 -2 -41 -8 -80 -13 l-70 -10 72 4 c60 4 148 24 103 24
-8 -1 -19 -2 -25 -5z"/>
<path d="M939 215 c-6 -25 -15 -48 -20 -51 -14 -8 -10 -34 4 -34 13 0 47 85
47 116 0 32 -21 11 -31 -31z"/>
<path d="M1258 243 c6 -2 18 -2 25 0 6 3 1 5 -13 5 -14 0 -19 -2 -12 -5z"/>
<path d="M1318 243 c7 -3 16 -2 19 1 4 3 -2 6 -13 5 -11 0 -14 -3 -6 -6z"/>
<path d="M1024 213 c-3 -16 -10 -43 -16 -61 -5 -18 -8 -35 -6 -37 8 -9 138
-32 138 -26 0 4 -24 12 -52 17 -58 10 -58 10 -44 92 9 47 -9 61 -20 15z"/>
<path d="M1500 194 c-7 -20 -18 -48 -26 -62 -19 -38 -19 -58 1 -42 8 7 15 18
15 25 0 8 12 18 28 23 19 7 22 11 8 11 -14 1 -17 6 -12 24 3 12 6 25 6 30 0
14 27 7 43 -11 20 -22 21 -29 5 -35 -7 -2 -5 -3 4 -2 10 2 29 -5 42 -16 52
-41 48 -16 -6 36 -68 66 -92 70 -108 19z"/>
<path d="M1200 203 c0 -10 -3 -42 -6 -70 l-7 -53 74 2 c70 2 71 2 17 5 l-58 4
0 64 c0 37 -4 65 -10 65 -5 0 -10 -8 -10 -17z"/>
<path d="M1379 216 c-2 -2 -2 -34 -1 -70 3 -51 7 -66 19 -66 11 0 14 6 9 23
-3 12 -6 43 -6 70 0 41 -7 56 -21 43z"/>
<path d="M1565 49 c-44 -10 -147 -23 -230 -27 -144 -9 -146 -9 -50 -10 121 -2
259 14 334 38 72 23 48 23 -54 -1z"/>
</g>
</svg>
